<?xml version="1.0" standalone="no"?>
<!DOCTYPE svg PUBLIC "-//W3C//DTD SVG 20010904//EN"
 "http://www.w3.org/TR/2001/REC-SVG-20010904/DTD/svg10.dtd">
<svg version="1.0" xmlns="http://www.w3.org/2000/svg"
 width="512.000000pt" height="512.000000pt" viewBox="0 0 512.000000 512.000000"
 preserveAspectRatio="xMidYMid meet">
<metadata>
Created by potrace 1.14, written by Peter Selinger 2001-2017
</metadata>
<g transform="translate(0.000000,512.000000) scale(0.100000,-0.100000)"
fill="#000000" stroke="none">
<path d="M2472 5062 c-6 -2 -9 -9 -6 -14 5 -7 2 -8 -5 -3 -8 4 -21 -1 -32 -14
-11 -12 -16 -21 -12 -21 4 0 -2 -7 -13 -16 -10 -8 -13 -12 -6 -9 11 6 11 3 1
-13 -7 -12 -18 -18 -24 -14 -5 3 -4 -2 4 -11 11 -14 11 -18 -3 -23 -9 -3 -14
-9 -11 -13 2 -4 -2 -20 -10 -35 -8 -14 -10 -24 -5 -21 6 4 10 2 10 -4 0 -5 -8
-15 -17 -20 -12 -7 -14 -10 -4 -11 11 0 11 -3 0 -17 -9 -11 -10 -14 -2 -9 9 5
11 2 7 -8 -3 -9 -11 -16 -18 -16 -6 0 -4 -5 4 -10 11 -7 11 -10 2 -10 -7 0
-11 -4 -7 -9 3 -5 1 -13 -5 -16 -8 -5 -7 -11 1 -21 7 -9 8 -14 1 -14 -12 0
-11 -18 2 -39 7 -10 6 -12 -4 -6 -10 6 -12 1 -8 -19 3 -14 1 -26 -3 -26 -5 0
-6 -7 -3 -15 4 -8 0 -23 -7 -32 -8 -9 -9 -14 -3 -10 7 4 14 -3 16 -18 3 -13 2
-22 -2 -20 -4 2 -5 -35 -3 -83 2 -48 4 -97 3 -110 0 -16 4 -21 13 -16 8 5 7 2
-2 -9 -7 -9 -9 -17 -4 -17 5 0 10 -15 11 -32 2 -18 7 -35 13 -36 6 -3 6 -9 -2
-18 -8 -10 -8 -14 0 -14 6 0 11 -9 11 -21 0 -11 4 -17 10 -14 5 3 7 0 4 -8 -3
-8 -1 -18 5 -21 6 -4 7 -14 4 -23 -5 -12 -3 -14 7 -8 10 6 12 4 7 -8 -3 -9 0
-18 9 -21 8 -3 14 -15 14 -26 0 -12 5 -18 10 -15 6 3 10 -3 10 -14 0 -12 7
-21 15 -21 8 0 15 -7 15 -15 0 -8 -5 -15 -11 -15 -5 0 -7 6 -3 13 4 6 -3 3
-16 -8 -13 -11 -20 -14 -16 -7 4 6 2 12 -4 12 -6 0 -8 5 -5 10 4 6 3 10 -2 9
-4 -1 -11 0 -15 1 -5 1 -14 3 -20 4 -7 1 -12 7 -11 14 2 6 -3 9 -11 6 -7 -3
-16 2 -20 11 -3 9 -10 13 -16 10 -5 -3 -10 -1 -10 4 0 6 -6 11 -14 11 -8 0
-17 7 -20 16 -3 8 -10 12 -16 9 -5 -3 -10 -1 -10 4 0 6 -6 11 -14 11 -8 0 -17
8 -20 17 -6 15 -8 15 -16 3 -8 -12 -10 -12 -15 1 -3 8 -15 16 -28 16 -12 1
-27 9 -33 17 -6 9 -14 13 -17 9 -6 -6 -8 0 -11 35 -1 7 -8 17 -16 22 -8 5 -11
10 -6 10 5 0 -7 14 -25 31 -19 18 -25 26 -14 19 11 -7 8 -1 -7 13 -16 14 -28
31 -28 37 0 6 -4 8 -10 5 -5 -3 -10 3 -10 15 0 14 -4 19 -12 14 -8 -5 -7 0 2
11 8 10 10 16 3 12 -6 -4 -14 -3 -18 3 -3 5 -1 10 6 10 9 0 10 3 2 11 -12 12
-6 49 9 49 5 0 7 -4 4 -8 -5 -9 50 -9 59 0 4 4 13 4 20 2 7 -3 20 5 29 18 9
12 16 18 16 13 0 -6 4 -3 10 5 6 9 5 20 -3 29 -9 12 -9 13 1 7 6 -4 12 -2 12
3 0 6 -4 11 -10 11 -5 0 -10 7 -10 17 0 9 -3 14 -6 10 -4 -3 -20 1 -36 9 -17
9 -28 12 -25 6 4 -5 -10 -8 -31 -7 -44 2 -64 -4 -56 -16 3 -5 -2 -6 -10 -3
-10 4 -16 1 -16 -7 0 -7 -3 -9 -7 -6 -3 4 -17 0 -30 -8 -15 -10 -23 -12 -23
-4 0 8 -6 7 -17 -2 -14 -12 -16 -12 -8 0 6 11 3 13 -13 9 -12 -4 -20 -2 -16 3
8 13 -10 11 -25 -3 -9 -8 -12 -9 -7 -1 4 7 -1 9 -14 6 -11 -3 -17 -10 -13 -15
3 -6 0 -9 -8 -6 -17 6 -43 -18 -34 -32 4 -6 -1 -7 -11 -3 -11 4 -15 3 -10 -5
3 -6 -4 -21 -16 -33 -13 -12 -17 -19 -10 -15 6 4 12 2 12 -3 0 -6 -5 -11 -11
-11 -5 0 -8 -4 -4 -9 3 -5 1 -12 -5 -16 -6 -3 -9 -26 -8 -50 0 -24 5 -42 10
-39 4 3 8 0 8 -6 0 -6 12 -22 26 -35 15 -14 22 -25 16 -25 -6 0 -9 -9 -7 -20
2 -11 0 -18 -6 -15 -5 4 -9 -1 -9 -10 0 -8 -6 -18 -14 -21 -8 -3 -12 -12 -9
-20 3 -8 0 -14 -6 -14 -6 0 -11 -7 -11 -16 0 -12 -7 -9 -27 12 -16 16 -25 30
-21 32 4 2 -4 15 -17 28 -14 14 -25 29 -25 34 0 6 -7 10 -15 10 -8 0 -14 3
-14 8 5 27 -2 52 -13 46 -7 -5 -8 -3 -3 7 12 19 14 49 3 49 -5 0 -7 4 -4 9 3
5 -2 35 -13 67 -10 33 -20 52 -24 43 -3 -9 -6 -6 -6 8 -1 12 -8 28 -16 36 -8
8 -11 17 -8 21 4 3 -1 6 -11 6 -9 0 -15 4 -11 10 3 5 -6 17 -20 26 -13 9 -22
21 -18 28 3 6 3 8 -2 4 -4 -4 -21 6 -37 22 -15 17 -31 30 -34 30 -10 0 -33 28
-27 33 3 4 -4 4 -16 2 -12 -2 -19 0 -16 5 7 11 -30 32 -40 22 -5 -4 -5 -2 -2
4 6 11 -19 29 -35 26 -5 -1 -8 5 -8 14 0 10 -5 14 -16 10 -8 -3 -12 -2 -9 4 6
9 -8 14 -27 11 -5 0 -8 7 -8 17 0 14 -2 15 -10 2 -6 -10 -10 -11 -10 -2 0 6
-7 12 -15 12 -8 0 -15 5 -15 11 0 6 -7 9 -15 5 -8 -3 -15 -1 -15 5 0 6 -4 7
-10 4 -5 -3 -10 -1 -10 5 0 6 -8 10 -18 8 -9 -1 -23 1 -30 6 -7 4 -19 3 -26
-3 -9 -7 -16 -7 -24 1 -8 8 -13 4 -18 -16 -3 -14 -4 -33 -1 -41 4 -8 1 -17 -5
-21 -7 -4 -8 -3 -4 4 4 7 2 12 -3 12 -16 0 -13 -20 3 -26 8 -3 12 -12 9 -20
-3 -8 0 -14 6 -14 6 0 10 -3 10 -7 -4 -25 2 -43 13 -37 8 5 9 2 5 -9 -4 -10 0
-20 11 -26 12 -8 13 -10 3 -11 -10 0 -9 -5 5 -17 10 -10 20 -25 22 -33 2 -8
10 -18 17 -23 8 -4 11 -15 8 -24 -4 -9 -2 -14 3 -11 11 7 35 -17 27 -26 -4 -3
0 -6 7 -6 7 0 11 -2 8 -5 -3 -3 12 -24 33 -45 22 -22 39 -44 39 -50 0 -6 4 -8
10 -5 6 3 10 -2 10 -11 0 -10 3 -15 6 -11 9 9 44 -25 37 -36 -4 -6 1 -8 11 -4
14 6 17 3 12 -9 -5 -14 -4 -15 9 -4 8 7 15 8 15 3 0 -5 12 -16 28 -23 15 -8
33 -19 41 -24 7 -6 19 -11 25 -12 26 -3 56 -17 56 -26 0 -6 7 -5 15 2 11 10
15 10 15 0 0 -6 6 -10 12 -8 7 3 19 -1 26 -9 7 -7 22 -13 33 -13 10 0 19 -4
19 -10 0 -5 7 -10 16 -10 8 0 12 -4 9 -10 -3 -5 1 -10 9 -10 9 0 16 -9 16 -20
0 -11 7 -20 15 -20 8 0 15 -8 15 -17 0 -9 7 -24 15 -33 14 -15 14 -18 0 -30
-12 -10 -15 -10 -15 4 0 10 -4 15 -9 12 -5 -3 -12 1 -15 10 -3 8 -10 13 -15
10 -5 -4 -22 -1 -38 5 -56 24 -103 30 -120 17 -7 -6 -14 -4 -19 3 -5 8 -3 9 6
4 9 -5 11 -4 6 3 -5 9 -13 8 -30 -3 -12 -8 -26 -12 -29 -8 -4 3 -7 1 -7 -6 0
-7 -4 -9 -10 -6 -5 3 -10 -3 -10 -14 0 -19 -32 -37 -57 -33 -7 2 -22 -2 -34
-9 -17 -9 -20 -8 -13 3 6 11 5 11 -9 -1 -9 -7 -17 -10 -17 -5 0 4 -9 -2 -20
-14 -12 -12 -26 -22 -33 -22 -8 0 -6 -4 3 -10 13 -9 12 -12 -4 -25 -14 -11
-16 -15 -5 -15 11 0 12 -2 0 -9 -10 -7 -11 -13 -2 -30 9 -16 9 -21 0 -21 -8 0
-8 -4 1 -15 6 -8 9 -19 5 -25 -3 -5 -2 -10 3 -10 5 0 9 -6 10 -12 3 -38 8 -54
20 -66 7 -8 10 -18 7 -23 -4 -5 -3 -9 2 -9 4 0 17 -12 27 -27 11 -14 14 -23 8
-19 -8 5 -10 2 -6 -8 3 -9 10 -13 15 -10 5 3 9 0 9 -6 0 -6 7 -18 15 -26 20
-20 3 -56 -22 -47 -10 4 -14 2 -10 -4 4 -6 -11 -3 -32 8 -22 10 -47 19 -56 19
-8 0 -15 6 -15 13 0 8 -4 7 -10 -3 -6 -9 -10 -11 -10 -3 0 7 -7 10 -17 6 -9
-4 -14 -2 -11 3 4 5 -18 8 -50 7 -98 -3 -121 -6 -118 -12 2 -3 -7 -6 -20 -6
-13 0 -24 4 -24 8 0 5 -5 5 -10 2 -6 -3 -10 -1 -10 5 0 6 -5 8 -10 5 -6 -3
-10 -2 -10 3 0 12 -46 32 -55 24 -4 -4 -11 -8 -16 -8 -5 -1 -10 -2 -11 -4 -2
-1 -11 -3 -20 -5 -18 -3 -105 -85 -91 -85 4 0 -7 -10 -24 -21 -18 -12 -33 -26
-33 -32 0 -6 -3 -8 -6 -4 -4 3 -13 -1 -21 -9 -8 -8 -19 -12 -24 -8 -5 3 -8 0
-7 -8 2 -7 -3 -12 -9 -10 -7 1 -13 -8 -14 -20 0 -13 -3 -17 -6 -10 -3 7 -13
-3 -24 -24 -10 -20 -16 -41 -13 -45 3 -5 1 -9 -5 -9 -6 0 -8 -7 -5 -15 4 -8 2
-15 -4 -15 -5 0 -9 -13 -8 -30 1 -16 -2 -30 -7 -30 -5 0 -4 -7 3 -15 10 -12
10 -15 -1 -15 -11 0 -11 -2 1 -10 12 -8 12 -10 1 -10 -10 0 -11 -3 -2 -13 7
-9 7 -17 0 -24 -6 -6 -13 -26 -16 -44 -3 -19 -10 -40 -16 -48 -10 -12 -9 -13
3 -6 12 6 13 5 3 -6 -16 -16 -17 -73 -2 -101 9 -16 8 -19 -2 -13 -9 6 -10 4
-3 -6 5 -8 9 -25 10 -39 0 -14 6 -36 14 -50 13 -24 12 -24 -5 -10 -10 8 -16
10 -12 3 4 -6 3 -14 -2 -17 -5 -3 -12 1 -15 10 -5 14 -9 14 -23 3 -9 -8 -14
-9 -10 -2 5 7 1 9 -12 6 -20 -5 -22 -34 -2 -41 9 -3 9 -7 1 -17 -9 -10 -7 -13
6 -11 10 2 30 -4 46 -11 15 -8 32 -11 38 -8 6 4 9 1 8 -7 -2 -7 4 -12 14 -10
9 1 19 -2 23 -7 3 -6 12 -8 20 -4 8 3 15 0 15 -6 0 -7 8 -11 17 -9 10 2 17 -2
16 -7 -1 -6 7 -11 17 -11 10 0 16 4 14 8 -3 4 0 8 5 8 6 0 11 -6 11 -14 0 -8
8 -13 18 -12 9 2 20 -1 23 -6 3 -5 15 -10 27 -13 12 -2 30 -9 39 -15 15 -10
15 -11 1 -6 -9 2 -19 2 -22 -2 -11 -10 -46 -9 -46 2 0 7 -3 7 -8 -1 -5 -7 -13
-9 -22 -3 -9 5 -25 3 -44 -7 -29 -15 -30 -15 -17 0 9 12 10 17 2 17 -7 0 -9 5
-6 10 3 6 -4 10 -16 10 -12 0 -20 -3 -16 -6 6 -6 -1 -17 -35 -54 -12 -13 -13
-20 -5 -24 7 -2 4 -5 -5 -5 -23 -1 -12 -31 12 -31 10 0 25 12 35 26 9 14 22
23 30 21 7 -3 18 0 24 6 6 6 11 7 11 3 0 -5 6 -3 14 3 11 9 16 9 22 0 5 -8 3
-9 -6 -4 -9 5 -11 4 -6 -4 6 -9 11 -9 24 1 12 10 14 10 8 1 -4 -7 -3 -13 3
-13 6 0 7 -7 4 -17 -5 -12 -3 -14 8 -8 12 8 12 6 0 -8 -8 -10 -11 -20 -8 -23
12 -12 -17 -32 -30 -22 -9 7 -13 7 -13 -1 0 -7 -10 -10 -25 -7 -14 3 -23 1
-21 -3 3 -4 -4 -13 -16 -20 -11 -7 -17 -8 -14 -2 4 7 1 8 -8 5 -9 -3 -16 -10
-16 -14 0 -5 -9 -7 -20 -5 -11 2 -22 0 -25 -6 -4 -5 -13 -3 -21 6 -9 8 -22 15
-30 15 -9 0 -12 5 -8 12 4 6 3 8 -3 5 -20 -12 -11 -58 13 -74 13 -8 22 -18 20
-22 -3 -4 9 -8 25 -9 28 -2 30 0 27 25 -2 23 1 28 19 29 12 1 20 -3 17 -7 -3
-5 0 -9 6 -9 6 0 8 -4 5 -10 -3 -5 0 -10 7 -10 10 0 10 -2 -1 -9 -7 -5 -10
-14 -7 -20 4 -6 4 -10 -1 -9 -4 2 -9 -1 -10 -5 -1 -5 -12 -18 -25 -29 -13 -11
-22 -24 -21 -29 2 -5 -4 -9 -12 -9 -8 0 -15 -4 -15 -10 0 -5 -7 -10 -15 -10
-9 0 -12 -6 -9 -15 4 -8 1 -15 -6 -15 -6 0 -18 -7 -26 -15 -9 -8 -13 -15 -9
-15 3 0 -3 -10 -15 -22 -11 -12 -26 -34 -32 -50 -7 -15 -17 -28 -23 -28 -5 0
-3 -5 5 -10 8 -5 10 -10 4 -10 -11 0 -13 -6 -17 -57 -1 -18 -4 -33 -7 -33 -3
0 -6 -9 -6 -19 0 -11 4 -17 8 -15 4 3 8 -4 8 -16 0 -13 -4 -18 -11 -15 -7 5
-7 2 0 -11 15 -30 24 -58 22 -71 -1 -7 3 -13 8 -13 6 0 15 -10 22 -21 9 -17 8
-20 -3 -13 -7 4 -4 -2 6 -14 21 -24 32 -29 20 -10 -4 7 -3 8 4 4 7 -4 12 -15
12 -24 0 -13 2 -14 9 -4 6 11 10 10 15 -3 5 -14 9 -15 20 -6 11 9 16 9 22 0 5
-8 3 -10 -7 -5 -8 5 -8 2 2 -6 9 -7 15 -23 14 -35 -1 -13 2 -23 7 -23 5 0 6
-10 3 -21 -5 -15 -4 -19 4 -15 6 4 11 1 11 -6 1 -20 36 -58 55 -58 9 0 14 -4
11 -9 -4 -5 2 -8 11 -7 10 2 21 -2 25 -8 6 -8 8 -8 8 0 0 6 10 9 24 7 37 -7
81 28 84 67 1 19 -2 29 -8 25 -6 -3 -7 0 -4 9 3 9 1 16 -6 16 -6 0 -8 5 -4 11
4 6 -1 9 -12 8 -11 -2 -24 0 -31 4 -6 4 -14 3 -18 -3 -4 -7 -12 -7 -26 0 -10
6 -19 8 -19 5 0 -3 -6 0 -14 7 -8 7 -12 16 -10 20 2 3 -3 14 -12 22 -11 12
-12 16 -2 16 8 0 9 3 3 8 -14 10 -17 32 -4 32 7 0 9 10 7 25 -3 13 -1 22 4 19
5 -3 8 2 6 12 -2 12 2 18 11 16 11 -2 12 0 3 11 -10 11 -9 17 3 27 12 10 13
16 4 26 -11 13 -6 18 14 15 12 -2 8 17 -5 22 -10 4 -10 6 0 6 6 1 12 9 13 19
0 10 3 12 6 5 2 -7 11 -13 18 -13 7 0 15 -5 17 -11 2 -7 25 -13 51 -14 26 -2
44 1 42 6 -3 4 8 6 25 4 16 -2 33 1 36 7 8 13 39 -70 43 -115 1 -5 5 -6 10 -3
4 3 7 -6 5 -19 -1 -14 2 -23 7 -19 8 5 13 -9 10 -28 0 -4 8 -10 19 -13 11 -4
20 -11 20 -16 0 -5 7 -9 16 -9 8 0 12 -4 9 -10 -4 -6 1 -7 11 -3 13 5 15 3 9
-8 -7 -12 -6 -12 7 -1 12 9 18 10 23 2 4 -7 16 -10 26 -7 11 3 17 1 13 -4 -3
-5 0 -10 5 -10 12 -2 26 -5 39 -9 4 -1 10 -2 15 -1 4 0 7 -4 7 -11 0 -6 3 -8
7 -5 3 4 12 2 20 -4 10 -9 13 -8 13 1 0 8 3 10 7 7 14 -15 32 14 23 38 -5 13
-6 26 -3 29 3 3 -2 8 -11 12 -9 3 -16 14 -16 23 -1 20 -24 51 -38 51 -7 0 -9
7 -5 17 4 11 3 14 -6 9 -8 -5 -16 3 -24 23 -6 17 -18 31 -27 31 -13 0 -13 2 0
10 13 8 13 10 -1 15 -18 7 -20 101 -1 97 7 -1 11 1 10 5 -3 16 15 43 28 43 8
0 14 6 14 13 0 9 2 9 9 -1 6 -11 10 -10 15 5 7 17 8 17 22 -1 8 -11 14 -14 14
-7 0 7 4 9 10 6 5 -3 19 -1 31 6 16 8 20 8 14 -1 -5 -8 -1 -11 11 -9 11 2 25
0 32 -4 7 -5 12 -3 12 3 0 6 5 8 10 5 6 -4 7 -12 3 -18 -4 -7 2 -5 12 3 17 13
18 13 10 0 -8 -13 -7 -13 8 -1 13 10 17 10 17 1 0 -7 7 -10 16 -6 8 3 13 2 10
-3 -3 -5 1 -12 10 -15 9 -3 12 -11 8 -18 -4 -7 1 -6 12 3 19 17 49 15 39 -2
-4 -5 1 -6 9 -3 9 3 13 11 10 18 -3 6 2 2 10 -8 9 -11 16 -16 16 -12 0 5 8 2
17 -5 11 -10 14 -10 9 -2 -4 7 -2 13 3 13 6 0 11 -4 11 -9 0 -6 9 -8 20 -6 11
2 20 0 20 -5 0 -4 11 -7 25 -5 14 1 28 -2 32 -8 4 -6 1 -7 -7 -2 -9 5 -11 4
-6 -4 6 -9 11 -9 24 1 13 11 14 11 8 0 -6 -9 -3 -12 10 -10 11 2 18 -1 17 -7
-1 -5 13 -11 30 -12 17 -1 33 -7 37 -13 4 -6 16 -12 28 -13 16 -1 18 -4 10
-14 -8 -11 -7 -12 6 -7 10 4 23 -1 35 -15 10 -11 21 -18 25 -14 3 3 6 -1 6
-11 0 -13 -4 -15 -18 -7 -27 14 -72 21 -72 11 0 -5 -12 -5 -27 -1 -16 4 -34 6
-42 3 -8 -3 -11 0 -7 7 4 6 5 11 2 11 -3 0 -10 -9 -16 -20 -9 -17 -6 -22 25
-37 19 -9 35 -20 35 -25 0 -4 7 -4 17 -1 11 4 14 3 9 -5 -5 -8 1 -12 18 -12
14 0 26 -4 26 -10 0 -5 7 -10 15 -10 8 0 24 -10 36 -22 12 -13 18 -16 14 -8
-8 13 -6 13 8 1 9 -7 14 -17 11 -22 -3 -5 2 -6 10 -3 10 4 18 -1 22 -11 5 -13
9 -14 15 -3 7 10 9 8 9 -6 0 -12 5 -16 16 -12 8 3 12 2 9 -4 -3 -6 -1 -10 5
-10 6 0 8 -5 5 -10 -4 -6 -3 -10 2 -9 21 4 34 -2 27 -13 -5 -7 -2 -9 8 -6 14
6 45 -28 40 -45 -1 -4 5 -15 13 -23 8 -9 12 -20 9 -26 -4 -6 -18 3 -33 21 -15
17 -32 31 -39 31 -7 0 -11 6 -9 12 1 7 -4 12 -10 11 -7 -2 -13 1 -13 6 0 5
-13 14 -30 21 -16 7 -28 16 -25 20 3 5 -3 6 -14 3 -10 -3 -22 0 -25 6 -4 6
-12 11 -17 11 -6 0 -7 -6 -3 -12 6 -9 3 -9 -9 0 -9 8 -21 11 -27 7 -5 -3 -10
-2 -10 3 0 9 -157 2 -180 -9 -3 -1 -12 -3 -20 -3 -8 -1 -14 -7 -13 -14 2 -6
-4 -9 -11 -6 -8 3 -33 -4 -56 -15 -24 -11 -47 -18 -52 -15 -4 3 -7 0 -6 -8 2
-7 -3 -12 -9 -11 -7 2 -13 -1 -13 -6 0 -5 -9 -11 -21 -14 -12 -3 -18 -10 -14
-17 3 -6 3 -10 -2 -9 -21 4 -33 -2 -33 -16 0 -8 -3 -14 -7 -14 -20 3 -34 -2
-28 -11 3 -5 2 -10 -2 -10 -5 0 -18 -7 -29 -16 -10 -8 -12 -13 -4 -9 10 4 9 2
-2 -8 -10 -8 -15 -17 -11 -21 4 -4 -1 -4 -11 0 -14 5 -17 4 -12 -4 4 -7 2 -12
-3 -12 -6 0 -11 -7 -11 -16 0 -9 -5 -12 -12 -8 -8 5 -9 2 -5 -9 3 -9 1 -19 -5
-23 -7 -5 -8 -2 -3 7 4 8 -1 5 -12 -6 -11 -11 -19 -23 -17 -27 2 -3 -1 -12 -8
-20 -7 -7 -14 -22 -16 -33 -2 -11 1 -16 5 -10 4 6 22 11 38 13 17 1 40 3 53 4
12 1 22 6 22 11 0 5 7 7 15 4 8 -4 17 -1 21 4 3 6 15 9 25 6 10 -3 22 0 26 5
4 7 1 8 -7 3 -9 -5 -11 -4 -6 3 5 8 13 9 25 2 10 -5 21 -6 25 -3 12 13 46 13
46 0 0 -8 4 -7 10 3 7 11 10 11 10 2 0 -7 4 -11 9 -7 5 3 15 -1 23 -8 7 -8 21
-13 31 -11 9 1 17 -4 17 -12 0 -9 5 -12 10 -9 6 3 10 1 10 -5 0 -6 5 -8 10 -5
6 3 10 1 10 -5 0 -6 4 -9 9 -5 5 3 12 1 16 -5 4 -6 10 -8 15 -5 4 3 13 -2 20
-10 7 -8 17 -12 22 -9 6 4 13 2 17 -4 4 -6 23 -12 44 -14 20 -1 37 -6 37 -10
0 -4 7 -4 17 -1 9 4 14 2 11 -3 -3 -5 7 -9 23 -10 18 -1 26 3 22 10 -4 6 0 6
9 -1 8 -7 18 -10 21 -6 4 3 13 0 22 -7 10 -8 15 -9 15 -1 0 6 4 11 8 11 14 0
12 -44 -4 -68 -8 -12 -11 -22 -7 -21 20 3 21 -3 5 -21 -9 -12 -15 -22 -13 -23
3 -1 -7 -23 -21 -48 -18 -32 -22 -46 -12 -46 7 0 11 5 7 10 -3 5 4 6 17 2 17
-6 21 -4 14 6 -6 10 -3 10 11 -1 17 -13 18 -13 13 1 -4 9 2 20 14 28 11 7 17
8 13 2 -9 -16 4 -14 20 3 8 7 11 17 7 21 -4 5 -2 5 5 1 6 -3 18 3 26 15 10 14
16 16 19 8 3 -8 12 0 23 19 11 18 27 35 37 38 10 3 15 10 12 16 -5 8 -1 9 12
4 10 -4 15 -4 11 0 -11 11 13 34 37 34 11 0 28 -4 36 -10 12 -7 10 -12 -9 -29
-13 -12 -33 -21 -43 -21 -13 0 -17 -4 -12 -12 5 -8 0 -7 -11 2 -10 8 -16 10
-12 3 4 -7 -1 -14 -13 -18 -11 -3 -20 -11 -20 -17 0 -6 -3 -8 -7 -5 -3 4 -19
-7 -35 -23 -15 -16 -28 -25 -28 -20 0 10 -18 -3 -68 -48 -14 -12 -32 -22 -40
-22 -8 0 -13 -3 -9 -6 3 -3 -8 -19 -24 -35 -16 -16 -26 -29 -22 -29 4 -1 -1
-9 -13 -18 -11 -10 -20 -25 -18 -35 1 -9 -2 -17 -7 -17 -6 0 -7 -4 -4 -10 3
-5 2 -10 -3 -10 -9 0 -24 -40 -21 -57 0 -3 -6 -10 -15 -15 -9 -5 -16 -16 -16
-23 0 -8 -4 -15 -10 -15 -5 0 -10 -6 -10 -12 0 -7 -14 -28 -30 -47 -17 -18
-30 -38 -30 -42 0 -13 18 -11 26 3 5 7 3 8 -6 3 -9 -6 -11 -4 -5 4 5 9 10 10
18 2 7 -7 15 -5 24 7 10 12 12 12 8 2 -4 -8 1 -6 10 5 9 11 21 20 28 20 7 1
11 6 10 13 -2 6 4 9 12 6 9 -4 15 0 15 10 0 10 6 13 15 10 8 -4 15 -1 15 6 0
6 5 8 10 5 6 -3 10 1 10 10 0 9 4 14 9 10 5 -3 16 1 24 9 8 8 17 12 21 9 3 -4
6 -1 6 6 0 7 4 10 9 6 5 -3 12 -1 16 5 4 6 11 8 16 5 5 -4 12 0 15 8 3 8 13
14 22 13 9 -2 23 3 30 11 11 10 17 11 28 2 11 -9 15 -8 20 4 3 10 14 14 30 11
13 -2 24 0 24 5 0 6 7 8 15 5 9 -4 15 0 15 7 0 9 3 10 8 4 10 -13 52 -15 52
-2 0 6 3 7 7 4 3 -4 12 -2 20 5 11 8 12 7 8 -5 -7 -17 25 -19 37 -3 4 6 12 5
21 -2 7 -7 17 -9 21 -5 12 12 42 10 54 -4 9 -9 9 -13 2 -13 -6 0 -4 -7 5 -16
11 -11 13 -20 6 -28 -7 -9 -6 -19 5 -34 11 -16 12 -22 3 -22 -7 0 -4 -7 7 -15
10 -8 15 -15 10 -15 -5 0 -2 -8 5 -17 12 -14 12 -16 -1 -9 -9 4 -8 1 3 -7 9
-8 17 -21 17 -28 0 -8 9 -21 20 -29 14 -10 16 -16 7 -22 -9 -6 -9 -8 2 -8 8 0
20 -8 28 -17 8 -10 12 -12 8 -6 -3 7 0 13 7 13 10 0 11 2 0 8 -8 5 -10 16 -6
27 5 12 4 16 -3 12 -7 -5 -9 0 -6 13 3 11 10 20 17 20 6 0 5 4 -3 9 -12 8 -13
14 -3 36 10 21 10 25 0 19 -9 -6 -9 -3 1 9 7 9 10 17 6 17 -4 0 0 11 9 25 12
18 13 25 4 25 -7 0 -2 6 12 13 14 7 27 11 30 8 3 -3 18 -7 35 -9 16 -2 32 -7
35 -10 3 -4 14 -9 25 -10 26 -5 46 -22 39 -33 -3 -5 1 -9 8 -9 9 0 9 -3 -2
-10 -13 -9 -13 -10 0 -10 9 0 11 -3 5 -8 -15 -11 -17 -74 -2 -65 7 4 6 0 -2
-10 -7 -10 -9 -17 -3 -17 11 0 11 -18 -1 -37 -4 -7 0 -16 10 -22 10 -6 13 -11
6 -11 -7 0 -10 -7 -7 -15 4 -8 11 -12 17 -8 6 4 7 1 1 -8 -13 -21 -14 -39 -2
-39 6 0 7 -8 4 -17 -4 -9 -1 -20 6 -25 10 -6 10 -8 -1 -8 -11 0 -10 -4 5 -16
10 -8 14 -13 7 -10 -13 7 -13 -40 0 -62 5 -7 3 -12 -4 -12 -10 0 -10 -3 -1
-12 8 -8 8 -19 -3 -44 -9 -22 -10 -36 -4 -40 6 -4 4 -13 -7 -25 -9 -10 -13
-19 -8 -19 5 0 3 -4 -4 -9 -7 -4 -14 -17 -15 -28 -1 -14 -6 -19 -16 -15 -8 3
-12 1 -8 -5 4 -6 -5 -23 -18 -37 -14 -15 -25 -31 -25 -37 0 -5 -7 -9 -16 -9
-8 0 -12 -4 -9 -10 3 -5 2 -10 -4 -10 -6 0 -8 -7 -5 -15 6 -16 25 -16 36 0 5
6 8 4 8 -5 0 -13 1 -13 10 0 9 13 11 13 20 0 5 -9 10 -10 10 -3 0 6 11 10 25
8 14 -1 25 1 25 5 0 4 7 11 16 14 8 3 12 2 9 -4 -3 -6 1 -7 9 -4 9 3 13 10 10
15 -3 5 2 6 11 3 8 -4 22 -1 30 6 8 7 15 9 15 4 0 -5 7 -1 14 9 8 10 18 17 22
16 18 -3 54 14 48 22 -3 5 4 9 15 9 12 0 21 7 21 16 0 8 4 13 9 10 5 -3 14 1
21 9 7 8 16 13 20 10 5 -3 12 0 16 6 5 8 3 9 -6 4 -9 -5 -11 -4 -6 3 4 7 14
12 22 12 8 0 12 4 9 10 -3 5 -1 10 6 10 6 0 22 11 35 25 13 14 21 25 18 25 -3
0 1 6 8 14 7 8 16 12 21 9 7 -4 11 12 8 31 -1 5 6 6 15 2 14 -5 15 -4 4 9 -10
12 -10 15 3 15 12 0 28 30 26 48 0 2 8 10 18 19 11 9 12 12 3 8 -9 -4 -7 0 3
9 20 15 47 12 47 -6 0 -6 6 -6 14 1 11 9 17 8 28 -8 8 -12 18 -18 22 -14 4 4
11 1 16 -7 10 -17 39 -22 35 -6 -10 39 -18 55 -26 50 -5 -3 -9 -2 -8 3 4 24
-2 53 -11 48 -6 -3 -11 1 -11 9 -1 9 -2 21 -3 27 0 6 -9 16 -18 23 -10 7 -18
18 -18 25 0 6 -4 11 -9 11 -9 0 -5 45 5 62 3 4 0 8 -7 8 -9 0 -9 3 0 14 9 11
9 15 -1 19 -10 4 -10 6 0 6 6 1 12 8 12 17 0 9 -5 12 -12 8 -10 -6 -10 -4 -2
7 14 19 16 66 4 74 -7 4 -6 13 0 26 8 13 7 19 0 19 -8 0 -8 6 0 20 10 19 6 24
-13 21 -4 -1 -3 8 3 18 7 13 7 22 0 26 -6 4 -8 11 -4 16 3 5 0 17 -8 26 -9 12
-9 15 0 9 8 -5 12 -1 12 10 0 16 1 16 16 -2 8 -10 13 -13 9 -6 -3 6 -1 12 4
12 6 0 11 -7 11 -16 0 -8 5 -12 10 -9 6 3 10 1 10 -5 0 -6 4 -9 9 -5 5 3 16
-2 24 -10 9 -8 20 -15 26 -15 6 0 15 -9 21 -21 7 -12 18 -18 26 -15 8 3 13 2
10 -3 -3 -5 5 -20 19 -32 13 -13 25 -29 25 -36 0 -6 4 -13 10 -15 5 -1 11 -15
12 -30 1 -16 5 -28 9 -28 6 0 9 -16 10 -67 1 -17 7 -34 15 -37 7 -3 11 -12 8
-20 -3 -8 -2 -21 2 -28 5 -7 9 -20 11 -28 1 -8 7 -16 13 -18 5 -2 8 -8 4 -13
-3 -5 0 -9 6 -9 6 0 8 -5 4 -11 -4 -7 -1 -10 7 -7 8 3 14 14 14 26 0 11 3 24
7 28 4 4 3 13 -4 21 -9 11 -8 13 3 11 9 -2 14 6 15 22 0 14 5 24 12 23 6 -2 9
6 7 17 -2 11 2 26 10 33 9 10 10 18 3 32 -8 14 -8 16 2 10 10 -6 12 -2 8 13
-4 14 -2 20 4 16 7 -5 9 2 6 20 -3 15 -1 26 5 26 8 0 8 3 0 11 -7 7 -8 21 -3
40 6 20 5 33 -5 42 -17 18 -5 39 15 27 21 -14 32 -12 24 3 -4 6 4 2 17 -9 13
-12 30 -19 38 -16 8 3 11 0 7 -7 -5 -7 1 -11 16 -11 13 0 29 -10 37 -21 10
-18 15 -19 22 -8 7 11 9 11 9 -3 0 -16 11 -23 32 -19 5 0 7 -2 7 -7 -3 -19 2
-33 11 -27 6 3 10 -3 10 -15 0 -12 4 -19 8 -16 8 5 59 -63 55 -73 -1 -3 4 -13
11 -21 8 -8 12 -23 11 -32 -2 -10 0 -18 5 -18 4 0 6 -28 5 -62 -3 -81 -3 -80
-15 -73 -5 3 -7 0 -4 -8 3 -8 0 -18 -5 -22 -6 -3 -9 -11 -6 -16 4 -5 1 -9 -4
-9 -6 0 -11 -8 -11 -17 0 -14 2 -15 9 -4 5 8 14 10 21 6 9 -6 11 -4 6 4 -5 8
0 14 13 18 12 3 21 9 21 14 0 5 7 9 16 9 8 0 12 5 9 10 -3 6 -1 10 5 10 15 0
40 25 40 40 0 6 4 8 10 5 5 -3 12 6 16 20 3 14 10 25 16 25 5 0 6 5 3 10 -3 6
-1 10 6 10 10 0 10 3 1 12 -9 9 -8 16 5 30 13 14 13 20 3 33 -8 10 -9 15 -1
15 11 0 9 76 -3 87 -3 3 -1 14 4 24 7 12 6 20 -2 25 -7 5 -8 3 -3 -6 5 -9 4
-11 -4 -6 -9 6 -9 11 0 22 7 9 8 14 1 14 -6 0 -9 9 -7 20 2 12 0 18 -6 14 -6
-3 -9 2 -7 12 2 11 -2 18 -8 17 -7 -1 -10 5 -7 15 2 10 -5 28 -16 41 -11 13
-19 27 -16 30 2 4 -5 13 -15 21 -10 8 -17 17 -14 22 3 4 -2 8 -11 8 -9 0 -13
5 -10 10 3 6 1 10 -5 10 -6 0 -8 4 -5 10 3 6 -1 7 -10 4 -11 -5 -14 -2 -8 12
4 12 3 15 -5 10 -7 -4 -23 4 -36 17 -14 14 -27 22 -30 19 -3 -3 -6 2 -6 12 0
9 -4 14 -10 11 -5 -3 -10 -1 -10 5 0 6 -4 8 -10 5 -5 -3 -10 1 -10 10 0 9 -4
14 -9 10 -5 -3 -16 2 -24 10 -12 11 -17 12 -20 2 -3 -7 -6 -5 -6 6 -1 9 -8 17
-17 17 -9 0 -12 5 -8 12 4 6 3 8 -4 4 -6 -3 -17 0 -25 8 -11 11 -17 12 -27 3
-10 -9 -11 -9 -6 1 5 7 1 12 -9 12 -10 0 -13 5 -9 12 5 7 2 9 -7 6 -9 -3 -32
2 -53 12 -28 12 -34 19 -22 23 9 4 20 -1 26 -11 11 -16 11 -16 6 0 -3 10 -1
20 4 23 6 4 10 1 10 -6 0 -7 7 -4 15 7 9 12 14 14 15 5 0 -8 8 -4 21 10 11 13
17 17 13 9 -5 -11 -2 -10 13 3 11 9 23 14 26 10 4 -3 7 -1 7 5 0 7 6 12 13 12
23 0 67 25 67 37 0 7 6 12 13 10 7 -1 12 7 11 20 0 12 2 22 5 21 22 -2 28 6
26 33 -1 17 4 33 11 36 7 2 11 10 8 18 -3 7 2 19 10 28 8 8 12 18 8 22 -4 4 0
5 8 3 8 -2 14 3 13 9 -2 7 0 12 5 12 19 -3 33 2 27 11 -3 6 -1 10 5 10 17 0
40 26 32 35 -4 5 1 5 11 2 11 -4 17 -1 17 8 0 8 5 15 10 15 6 0 10 7 10 15 0
8 5 15 11 15 5 0 7 5 4 10 -3 6 -1 10 5 10 6 0 9 4 6 9 -9 15 40 31 54 18 10
-9 11 -9 5 2 -6 10 -2 11 15 6 15 -5 20 -4 16 4 -5 7 -1 9 8 5 9 -3 16 -11 16
-17 0 -6 3 -7 6 -4 9 9 46 -12 39 -23 -3 -5 3 -7 14 -5 15 3 19 -1 16 -15 -2
-10 3 -21 11 -24 9 -3 13 -10 9 -15 -3 -5 0 -13 6 -17 8 -4 7 -9 -2 -15 -8 -5
-9 -9 -3 -9 6 0 9 -13 6 -30 -2 -17 -9 -30 -14 -30 -6 0 -8 -7 -4 -15 3 -8 -2
-19 -12 -24 -9 -6 -13 -11 -8 -11 5 0 -4 -12 -20 -26 -16 -15 -22 -23 -14 -19
8 3 6 -2 -5 -12 -12 -10 -24 -26 -28 -36 -4 -10 -11 -15 -17 -12 -5 3 -11 1
-11 -4 -1 -6 -2 -17 -3 -23 -1 -7 -9 -12 -19 -12 -9 1 -15 -1 -12 -5 6 -11
-31 -62 -40 -54 -4 5 -3 -2 3 -13 6 -12 8 -24 5 -28 -3 -3 10 -6 30 -6 19 0
38 6 40 13 4 9 6 8 6 -2 1 -11 4 -11 16 -1 8 7 15 9 15 5 0 -4 7 -2 15 5 8 7
15 9 15 5 0 -4 7 -2 15 5 8 7 15 9 15 6 0 -4 7 0 16 8 8 9 20 14 25 11 5 -4 9
-2 9 4 0 6 11 13 25 17 14 3 23 10 20 14 -3 4 5 10 17 13 12 4 19 9 15 13 -4
4 3 15 14 25 12 10 18 23 14 28 -3 6 1 11 9 11 8 0 18 5 22 12 5 7 3 8 -6 3
-8 -5 -3 7 10 25 13 18 19 30 12 26 -8 -5 -10 -2 -6 8 3 9 10 13 15 10 5 -3 6
2 2 11 -3 10 0 21 8 26 12 8 12 11 -1 19 -10 6 -11 10 -3 10 9 0 11 11 8 35
-3 26 -1 34 8 30 7 -4 4 0 -6 8 -12 10 -15 17 -7 22 8 5 8 11 -1 21 -6 7 -15
11 -20 8 -5 -3 -6 1 -3 9 3 8 0 18 -5 22 -6 3 -9 11 -6 16 4 5 -1 12 -9 15 -9
3 -16 15 -16 25 0 10 -6 19 -12 19 -7 0 -5 5 6 11 25 15 76 18 76 5 0 -6 4 -5
9 2 7 11 9 11 14 -2 4 -9 12 -13 20 -10 7 2 24 -4 37 -16 13 -11 19 -20 15
-20 -4 0 0 -10 11 -22 12 -13 13 -18 4 -13 -13 8 -13 7 0 -11 8 -10 19 -22 23
-25 4 -3 9 -16 10 -27 1 -12 5 -22 9 -22 4 0 8 -7 8 -16 0 -9 5 -12 11 -8 8 5
9 2 1 -11 -7 -13 -6 -28 4 -50 7 -18 11 -35 9 -37 -3 -3 -6 -23 -7 -46 -1 -23
-3 -40 -5 -38 -2 2 -16 -7 -30 -20 -26 -24 -50 -33 -38 -14 5 9 -23 15 -47 11
-5 0 -8 4 -8 10 0 8 -4 9 -13 0 -8 -6 -17 -8 -20 -4 -4 3 -9 -2 -13 -11 -3 -9
-9 -14 -13 -11 -7 4 -10 -6 -12 -37 -1 -27 9 -53 19 -51 6 2 9 -4 6 -11 -3 -9
3 -17 15 -21 12 -3 21 -10 21 -13 0 -7 13 -10 83 -16 16 -1 30 1 33 6 3 5 10
5 16 2 7 -4 8 -2 4 4 -4 7 -1 12 8 12 8 0 18 9 21 20 4 11 11 18 16 15 8 -6
13 8 10 28 0 4 4 7 10 7 5 0 7 5 4 10 -4 6 -2 16 3 23 5 7 8 21 6 32 -1 10 3
26 9 34 10 12 9 13 -3 7 -8 -4 -6 -1 4 8 10 8 22 13 27 11 4 -3 11 0 15 6 5 8
2 10 -7 4 -8 -4 -2 3 12 16 31 29 52 66 44 79 -3 5 1 7 9 4 10 -4 15 1 15 13
2 61 6 83 14 83 5 0 5 5 -1 13 -15 18 -15 29 0 38 8 6 9 9 1 9 -6 0 -10 8 -8
18 1 9 -4 24 -12 34 -10 11 -11 18 -3 23 8 5 6 13 -7 28 -13 14 -14 18 -3 13
9 -4 8 -2 -2 7 -10 8 -18 22 -18 31 0 10 -5 14 -10 11 -6 -3 -10 3 -10 14 0
12 -7 21 -16 21 -8 0 -13 4 -10 8 3 5 -4 14 -14 22 -10 8 -17 17 -14 22 3 4
-2 8 -10 8 -9 0 -16 5 -16 12 0 6 -3 9 -6 6 -7 -8 -54 36 -54 51 0 6 -7 11
-16 11 -8 0 -12 4 -9 10 3 6 1 10 -6 10 -8 0 -7 5 2 17 12 14 12 16 0 8 -10
-5 -12 -4 -7 3 4 7 12 12 17 12 6 0 17 7 25 15 18 18 4 20 -15 3 -8 -7 -11 -8
-8 -2 4 6 0 20 -8 30 -13 18 -14 18 -8 -6 5 -24 5 -24 -9 -6 -10 13 -17 15
-22 8 -12 -19 -25 -14 -21 8 2 11 -3 24 -13 30 -11 6 -12 10 -4 10 7 0 10 5 7
10 -4 6 -12 7 -18 3 -8 -5 -8 -2 0 9 7 8 9 19 5 23 -4 5 1 5 11 2 9 -4 17 -2
17 3 0 6 5 10 11 10 5 0 7 -6 3 -12 -4 -7 3 -4 16 7 15 14 24 16 27 8 2 -7 11
-9 20 -6 29 11 58 8 71 -7 8 -8 11 -9 7 -2 -4 7 0 12 10 12 11 0 15 5 11 16
-3 8 -2 12 4 9 17 -10 11 11 -9 34 -17 20 -20 20 -35 6 -12 -12 -16 -13 -16
-3 -1 7 -7 2 -14 -11 -8 -15 -16 -20 -20 -12 -4 6 -12 11 -17 11 -6 0 -7 -5
-3 -11 5 -9 -1 -10 -20 -5 -18 4 -32 2 -42 -9 -12 -11 -20 -13 -29 -5 -10 8
-14 7 -18 -2 -4 -10 -8 -10 -16 2 -11 16 -5 33 10 25 5 -4 9 -1 9 5 0 6 5 8
10 5 6 -3 10 -1 10 5 0 7 7 10 15 6 8 -3 14 -2 14 2 -3 21 3 31 16 26 9 -4 18
1 21 11 5 13 9 14 15 3 7 -10 9 -8 9 6 0 13 5 17 20 13 11 -3 20 -1 20 5 0 5
5 6 10 3 6 -3 10 0 10 7 0 9 3 9 10 -2 8 -13 10 -13 10 2 0 12 6 16 20 13 11
-2 18 0 15 5 -3 5 6 12 20 16 14 3 22 11 18 17 -4 7 0 8 13 3 10 -4 15 -4 11
0 -4 4 -1 14 6 22 10 13 9 15 -5 9 -13 -4 -16 -2 -12 11 4 11 -1 9 -13 -6 -19
-23 -20 -23 -38 -6 -17 17 -17 18 1 25 14 5 15 8 4 9 -13 0 -13 2 1 13 9 7 15
20 13 30 -1 9 2 17 7 17 5 0 9 7 9 16 0 8 4 13 9 10 9 -6 26 22 23 37 -1 4 4
7 11 7 8 0 7 4 -3 10 -9 6 -11 10 -3 10 7 0 10 7 6 16 -3 8 -12 13 -20 10 -9
-4 -11 -2 -7 6 5 7 2 9 -8 5 -13 -4 -15 1 -12 29 2 21 -1 34 -9 34 -8 0 -8 3
-2 8 13 9 16 42 4 42 -6 0 -5 10 2 21 9 17 8 20 -2 14 -9 -6 -11 -2 -7 12 3
11 1 28 -5 38 -6 12 -6 16 1 11 6 -4 8 2 5 14 -3 11 -10 17 -15 14 -6 -4 -6 0
0 12 7 14 6 25 -4 38 -7 10 -11 23 -7 29 3 6 -3 16 -13 24 -10 8 -17 15 -15
16 10 5 -12 47 -25 47 -8 0 -13 3 -12 8 2 4 -1 8 -5 9 -12 2 -36 36 -31 44 2
4 -6 6 -19 5 -14 -1 -21 4 -19 13 2 8 -3 11 -10 8 -15 -5 -40 18 -30 28 4 4 3
6 -3 5 -21 -5 -36 0 -30 10 3 6 1 10 -6 10 -7 0 -10 3 -6 6 7 7 -13 30 -27 31
-5 1 -13 8 -18 17 -5 9 -13 14 -19 11 -5 -4 -9 -2 -9 3 0 14 -64 21 -72 8 -6
-8 -8 -7 -8 2 0 6 -5 12 -11 12 -5 0 -8 -4 -5 -9 3 -5 -6 -12 -19 -15 -14 -4
-23 -10 -20 -15 2 -5 -2 -11 -10 -14 -8 -4 -12 -15 -10 -26 2 -11 -1 -24 -7
-27 -7 -5 -8 -2 -3 6 5 9 4 11 -4 6 -9 -6 -9 -11 0 -22 6 -8 9 -17 6 -21 -9
-9 23 -64 33 -58 6 4 10 2 10 -3 0 -5 7 -9 15 -9 8 0 15 5 15 11 0 6 4 5 9 -3
8 -12 12 -12 25 -2 12 10 16 10 16 2 0 -7 4 -10 9 -7 5 3 12 -1 15 -10 4 -9
13 -14 21 -10 8 3 15 1 15 -5 0 -6 5 -7 12 -3 7 4 8 3 4 -5 -4 -6 -2 -18 4
-26 7 -8 9 -15 5 -15 -4 0 -1 -8 6 -17 8 -9 9 -14 3 -10 -15 9 -14 -65 1 -75
6 -5 3 -8 -6 -8 -12 0 -15 -8 -13 -30 2 -16 -1 -32 -6 -35 -5 -3 -7 -12 -3
-20 3 -8 0 -15 -7 -15 -6 0 -8 -4 -5 -10 3 -5 1 -10 -5 -10 -6 0 -9 -4 -5 -9
7 -12 -24 -79 -48 -104 -10 -10 -15 -22 -12 -26 5 -9 -32 -25 -49 -22 -5 1 -3
-6 4 -16 8 -10 10 -15 5 -10 -4 4 -19 0 -32 -8 -13 -9 -23 -12 -23 -8 0 5 -4
2 -8 -4 -4 -7 -17 -14 -27 -16 -11 -1 -26 -7 -34 -11 -10 -7 -12 -6 -6 4 6 10
4 11 -6 4 -22 -13 -79 -14 -79 -1 0 7 -4 6 -9 -2 -8 -13 -12 -13 -27 0 -15 12
-16 12 -9 0 6 -11 5 -12 -6 -5 -17 10 -20 11 -60 13 -20 1 -28 5 -23 13 5 8 2
9 -9 5 -10 -3 -17 -2 -17 3 0 6 5 10 11 10 5 0 7 6 3 13 -4 6 -4 9 0 5 4 -3
19 0 33 7 15 8 31 11 36 8 6 -4 8 1 4 10 -3 9 -3 16 1 15 14 -4 52 14 47 22
-3 5 4 11 15 15 11 4 18 11 15 16 -4 5 -2 9 4 9 14 0 62 71 55 82 -3 4 -1 8 5
8 6 0 8 7 4 16 -3 9 0 20 8 25 12 7 12 9 0 9 -7 0 -11 6 -7 15 3 8 0 15 -7 15
-9 0 -9 2 0 8 9 6 8 11 -6 22 -11 7 -17 20 -13 28 4 11 1 14 -9 10 -19 -8 -20
31 -1 51 7 7 11 20 8 27 -3 8 -1 14 5 14 6 0 8 7 5 16 -3 8 -2 13 3 10 5 -3 8
17 7 44 -1 28 1 50 4 50 3 0 5 13 5 29 0 16 -2 29 -5 29 -18 -1 -21 4 -11 16
10 11 7 17 -11 30 -14 10 -17 16 -8 16 9 0 8 4 -5 14 -11 8 -23 12 -27 10 -5
-3 -8 0 -8 5 0 6 -3 10 -7 10 -24 -4 -40 3 -40 16 0 9 6 14 13 11 7 -3 18 2
24 9 7 8 17 12 23 8 5 -3 7 -1 3 5 -3 6 2 13 13 17 11 3 22 12 25 20 3 8 13
15 21 15 10 0 13 5 9 12 -4 6 -3 8 4 4 6 -3 9 -18 6 -32 -3 -18 -1 -23 7 -18
9 5 10 2 6 -9 -3 -10 -2 -17 3 -17 6 0 19 -9 30 -20 16 -16 25 -18 40 -10 24
13 40 13 20 0 -8 -5 -10 -10 -4 -10 5 0 20 9 31 19 12 11 24 17 29 13 4 -4 4
-1 0 6 -4 6 -4 18 1 25 13 21 26 140 14 133 -3 -3 -6 11 -5 30 1 20 -3 34 -10
34 -6 0 -4 5 4 10 13 9 13 10 0 10 -13 0 -13 1 0 10 12 8 12 10 -5 10 -15 0
-17 2 -7 9 11 6 8 14 -11 34 -14 13 -23 28 -19 33 4 4 -1 4 -10 1 -12 -4 -18
-1 -18 8 0 8 -5 15 -11 15 -5 0 -7 -6 -3 -12 4 -7 -2 -4 -14 6 -12 11 -20 21
-17 24 2 2 -6 13 -18 24 -12 11 -16 16 -8 12 9 -5 12 -3 7 4 -4 7 -14 12 -23
12 -13 0 -13 3 -3 15 10 13 9 15 -9 15 -12 0 -21 6 -21 16 0 8 -4 12 -10 9 -5
-3 -10 -1 -10 4 0 6 -7 11 -16 11 -8 0 -13 4 -10 9 4 5 -2 8 -11 6 -10 -1 -26
2 -35 7 -12 5 -18 5 -18 -1 0 -7 -9 -7 -25 -1 -18 7 -24 6 -22 -3 1 -7 -7 -11
-20 -9 -13 2 -23 -2 -23 -8 0 -6 -4 -8 -10 -5 -14 9 11 45 32 45 10 0 18 5 18
10 0 6 5 10 11 10 5 0 7 -6 4 -12 -4 -7 0 -5 8 4 8 10 17 15 20 11 4 -3 7 -1
7 5 0 7 7 12 15 12 8 0 15 5 15 10 0 6 6 10 14 10 7 0 21 10 30 23 9 12 14 15
10 7 -4 -8 6 -1 22 15 16 17 43 43 59 59 17 16 23 25 15 21 -8 -4 -5 2 8 14
12 12 19 27 16 33 -5 8 -1 9 10 5 9 -4 15 -3 11 2 -3 5 2 17 11 25 11 12 12
16 2 16 -8 1 -7 6 6 15 10 8 15 19 10 26 -4 8 -3 10 4 5 8 -4 12 0 12 11 0 10
7 29 16 41 9 13 13 26 10 29 -3 3 -1 11 4 18 5 6 10 26 12 43 1 18 6 32 11 32
5 0 7 7 3 15 -3 8 -1 15 5 15 6 0 8 4 5 9 -4 5 -2 20 3 34 6 16 6 28 -1 35 -8
8 -7 13 6 18 13 5 14 9 5 20 -9 11 -8 14 7 14 13 0 15 3 7 8 -12 8 -12 50 1
70 4 7 1 12 -6 12 -8 0 -9 3 -3 8 14 10 17 32 5 32 -12 0 -9 22 5 32 6 5 5 8
-2 8 -7 0 -13 8 -13 18 0 11 -9 27 -20 37 -12 11 -20 13 -20 6 0 -7 -4 -10 -9
-6 -5 3 -12 1 -16 -5 -4 -6 -10 -8 -14 -5 -5 2 -19 -9 -31 -25 -12 -16 -27
-27 -31 -24 -5 3 -9 0 -9 -6 0 -15 -26 -41 -34 -33 -3 4 -6 0 -6 -7 0 -7 -8
-19 -17 -27 -11 -9 -12 -12 -3 -7 13 6 0 -10 -75 -88 -12 -13 -14 -18 -5 -14
9 5 9 2 -2 -7 -10 -8 -15 -17 -11 -20 3 -4 -1 -7 -10 -7 -10 0 -15 -7 -12 -20
2 -11 -1 -19 -8 -17 -6 1 -12 -5 -12 -13 0 -8 -7 -14 -15 -12 -8 2 -12 0 -8
-4 4 -4 3 -13 -3 -21 -6 -7 -8 -13 -5 -13 4 0 -2 -9 -13 -21 -11 -12 -17 -28
-14 -37 4 -9 2 -13 -4 -9 -6 4 -16 -11 -23 -33 -7 -22 -17 -37 -22 -34 -5 3
-7 -6 -4 -20 3 -15 1 -24 -5 -21 -8 6 -13 -8 -10 -27 0 -5 -3 -8 -8 -8 -5 0
-12 -7 -15 -16 -3 -8 -2 -12 4 -9 6 3 7 -1 4 -9 -3 -9 -10 -16 -15 -16 -4 0
-6 -6 -3 -14 3 -8 1 -17 -5 -21 -8 -4 -8 -12 0 -27 8 -15 8 -19 0 -14 -6 4
-11 2 -11 -3 0 -6 3 -11 8 -11 4 0 7 -20 7 -44 0 -24 -3 -42 -7 -39 -5 2 -8
-1 -8 -6 0 -6 4 -11 9 -11 5 0 11 -13 13 -29 2 -17 1 -28 -4 -25 -4 3 -8 0 -8
-7 0 -21 -14 0 -16 24 -1 12 -5 42 -9 67 -3 25 -7 57 -7 73 -1 15 -5 27 -9 27
-4 0 -6 11 -4 25 1 14 -1 25 -5 25 -5 0 -7 11 -6 25 2 13 -1 22 -5 19 -5 -3
-9 4 -9 15 0 12 -4 21 -10 21 -5 0 -10 8 -10 19 0 10 -11 30 -25 45 -14 15
-22 32 -19 38 4 6 2 8 -4 4 -6 -3 -18 4 -26 16 -11 15 -16 18 -17 8 0 -8 -5
-4 -10 9 -8 20 -11 22 -26 10 -12 -10 -14 -10 -9 -1 8 13 0 15 -47 14 -17 0
-31 7 -37 19 -6 10 -17 19 -25 19 -7 0 -15 5 -17 11 -3 9 -21 15 -50 18 -5 1
-8 9 -8 19 0 14 -2 15 -10 2 -8 -13 -10 -13 -10 1 0 9 -11 21 -25 27 -14 6
-25 8 -25 3 0 -5 -8 -8 -17 -7 -10 0 -18 -5 -18 -11 0 -7 -4 -13 -8 -12 -5 0
-16 -9 -25 -20 -45 -53 -51 -61 -46 -61 4 0 0 -8 -7 -17 -10 -11 -10 -14 -1
-9 8 5 12 -1 12 -19 0 -15 4 -24 10 -20 6 3 10 1 10 -5 0 -6 5 -8 10 -5 6 3
10 0 10 -7 0 -10 2 -10 9 1 7 11 9 11 13 0 4 -12 7 -12 21 0 11 9 17 10 17 2
0 -8 6 -8 20 1 16 10 22 10 32 -1 11 -11 10 -12 -2 -6 -9 5 -7 -1 5 -15 11
-13 15 -20 8 -17 -6 4 -14 3 -18 -3 -3 -5 -1 -10 5 -10 7 0 8 -6 1 -19 -6 -10
-7 -21 -4 -25 3 -3 1 -6 -5 -6 -7 0 -12 -7 -12 -15 0 -8 -4 -15 -10 -15 -5 0
-10 -7 -10 -16 0 -8 -4 -12 -10 -9 -5 3 -10 -1 -10 -10 0 -9 -5 -13 -11 -10
-6 4 -13 -2 -16 -14 -3 -11 -8 -19 -12 -17 -6 4 -24 -12 -32 -29 -2 -5 -7 -9
-10 -8 -4 1 -10 -9 -13 -23 -4 -14 -11 -22 -16 -19 -6 3 -10 2 -10 -4 0 -6 -8
-15 -18 -20 -15 -8 -29 -2 -70 28 -28 21 -49 41 -46 44 3 2 -2 7 -11 11 -10 3
-14 2 -9 -5 3 -6 -3 -5 -15 3 -12 7 -21 16 -21 21 0 4 -5 5 -11 1 -6 -3 -15
-1 -19 6 -4 7 -22 13 -39 14 -17 0 -31 4 -31 8 0 4 -12 6 -27 4 -16 -1 -36 2
-47 7 -14 7 -16 6 -11 -4 6 -9 4 -11 -7 -6 -9 3 -19 3 -23 -1 -3 -4 -12 -7
-18 -7 -22 -1 -77 -40 -77 -55 0 -13 -1 -13 -10 0 -9 13 -10 13 -10 0 0 -8
-12 -28 -27 -45 -14 -16 -23 -23 -20 -14 3 9 0 22 -6 29 -9 9 -9 11 -1 7 16
-9 25 18 12 31 -6 6 -7 16 -2 23 12 20 13 80 1 72 -6 -4 -7 -1 -2 8 12 19 14
49 3 55 -4 3 -8 10 -8 15 0 6 4 8 8 5 5 -3 9 1 9 9 0 8 -5 15 -10 15 -5 0 -6
8 -3 17 4 9 1 20 -6 25 -8 5 -9 8 -2 8 11 0 9 38 -3 70 -10 24 -9 44 2 52 6 5
5 8 -3 8 -7 0 -10 5 -7 10 3 6 1 10 -6 10 -8 0 -7 5 2 17 8 9 9 14 3 10 -7 -4
-14 2 -17 13 -3 11 -2 18 2 15 4 -2 8 2 8 10 0 8 -5 11 -10 8 -6 -4 -8 0 -4
10 4 10 2 17 -4 17 -7 0 -9 11 -7 25 3 13 2 22 -2 20 -5 -3 -10 2 -14 10 -3 8
0 15 7 15 8 0 6 4 -3 10 -8 5 -11 10 -6 10 5 0 3 7 -4 15 -7 8 -9 15 -6 15 4
0 1 12 -8 28 -8 15 -20 42 -26 60 -7 17 -17 32 -22 32 -5 0 -7 4 -3 9 3 5 -10
22 -29 36 -34 26 -68 36 -94 27z m-882 -1042 c0 -5 -2 -10 -4 -10 -3 0 -8 5
-11 10 -3 6 -1 10 4 10 6 0 11 -4 11 -10z m863 -507 c-5 -2 -8 -15 -5 -28 2
-14 0 -25 -5 -25 -5 0 -9 -10 -10 -22 -1 -11 -8 -25 -15 -29 -10 -7 -10 -9 2
-9 11 -1 10 -4 -4 -15 -11 -8 -15 -15 -9 -15 6 0 9 -9 6 -20 -3 -11 -10 -20
-15 -20 -6 0 -8 -7 -4 -15 3 -8 0 -15 -7 -15 -8 0 -6 -4 3 -10 8 -5 10 -10 5
-10 -6 0 -11 -10 -12 -22 -1 -11 -8 -25 -15 -29 -10 -7 -10 -9 2 -9 12 0 12
-2 2 -8 -8 -5 -10 -16 -6 -27 5 -13 4 -16 -5 -11 -14 9 -11 -16 4 -26 6 -5 5
-8 -2 -8 -7 0 -13 -12 -13 -26 0 -22 -2 -25 -15 -14 -8 7 -15 9 -16 4 0 -5 -4
0 -8 11 -5 12 -4 26 3 34 8 11 8 13 -1 7 -9 -5 -13 0 -13 14 0 14 4 19 13 14
8 -5 8 -2 -2 9 -7 9 -9 17 -3 17 5 0 8 8 5 19 -3 10 0 22 6 25 8 5 8 13 1 26
-7 13 -6 19 6 24 9 4 12 11 7 18 -11 18 -13 39 -3 33 4 -3 11 2 14 11 3 8 2
13 -3 10 -5 -4 -7 3 -4 14 3 11 10 20 15 20 6 0 8 7 4 15 -3 8 0 14 7 12 7 -1
11 4 10 11 -2 6 2 12 8 12 5 0 7 5 4 10 -3 6 1 10 10 10 9 0 14 4 10 9 -3 5 4
12 15 16 11 3 20 11 20 16 0 6 5 7 12 3 8 -5 8 -9 1 -11z m-1708 -111 c-7 -7
19 -30 28 -25 5 3 11 -4 14 -16 3 -11 8 -19 12 -17 3 2 12 -2 19 -10 7 -8 10
-14 7 -14 -2 0 9 -13 25 -28 16 -16 27 -32 23 -35 -3 -4 -1 -7 6 -7 7 0 9 -5
5 -12 -5 -9 -2 -8 9 1 15 12 17 12 11 -3 -4 -10 0 -18 10 -22 9 -3 16 -16 16
-28 0 -14 3 -17 8 -8 6 9 12 5 20 -13 7 -16 17 -23 24 -19 7 4 8 3 4 -4 -4 -7
-2 -12 4 -12 6 0 15 -11 20 -25 5 -14 14 -25 20 -25 6 0 8 -5 4 -12 -4 -7 -3
-8 5 -4 6 4 14 0 17 -8 3 -9 11 -13 18 -9 6 3 8 3 4 -2 -4 -4 -3 -14 4 -22 9
-11 6 -19 -12 -36 -12 -12 -20 -16 -16 -10 5 9 2 11 -8 7 -9 -3 -16 -10 -16
-15 0 -5 -3 -8 -7 -8 -5 1 -10 1 -13 -1 -3 -1 -15 -3 -28 -6 -16 -3 -21 0 -17
8 4 7 0 5 -8 -4 -11 -14 -16 -15 -27 -5 -10 9 -11 9 -6 -1 6 -10 -3 -11 -41
-6 -26 4 -56 8 -65 8 -9 0 -14 4 -12 8 3 4 -1 8 -8 8 -7 0 -31 16 -53 36 -22
20 -34 33 -27 29 6 -3 12 -1 12 4 0 6 -4 11 -10 11 -5 0 -10 7 -10 16 0 8 -4
12 -10 9 -5 -3 -10 1 -10 10 0 8 -7 18 -15 21 -8 4 -12 10 -9 15 3 5 0 9 -5 9
-6 0 -11 7 -11 15 0 8 -6 15 -12 15 -10 0 -10 2 0 9 11 6 10 10 -4 15 -9 3
-14 9 -11 13 4 3 2 12 -4 20 -6 7 -8 13 -4 13 4 0 1 8 -6 17 -12 15 -12 16 1
8 13 -7 13 -6 2 7 -7 8 -9 24 -5 33 4 12 3 16 -4 12 -12 -8 -12 11 0 31 5 7 3
12 -4 12 -7 0 -4 7 7 16 10 8 14 13 7 10 -6 -4 -14 -2 -18 4 -3 5 -1 10 5 10
6 0 27 11 47 24 34 24 37 24 69 8 19 -8 32 -18 29 -20z m990 -102 c4 -7 12 -7
25 0 25 14 30 13 30 -6 0 -8 5 -12 10 -9 6 3 10 1 10 -4 0 -6 8 -11 18 -11 13
0 14 -2 4 -9 -11 -7 -11 -9 2 -14 9 -4 16 -18 16 -32 0 -14 5 -25 10 -25 6 0
10 -5 10 -11 0 -5 -4 -7 -10 -4 -5 3 -10 1 -10 -5 0 -6 -4 -9 -9 -5 -5 3 -12
1 -16 -4 -9 -16 -51 8 -65 38 -6 14 -11 27 -10 29 1 2 -7 11 -17 20 -10 9 -19
24 -21 32 -2 8 -9 18 -15 22 -7 5 -4 8 10 8 12 0 25 -5 28 -10z m-367 -551
c21 2 32 -1 28 -7 -3 -6 -2 -12 4 -14 5 -1 11 -14 13 -27 2 -14 9 -27 15 -29
6 -2 8 -10 5 -18 -3 -8 -1 -14 4 -14 4 0 14 -9 21 -21 8 -12 9 -18 3 -14 -6 3
-11 1 -11 -4 0 -6 4 -11 8 -11 5 0 8 -13 8 -30 0 -16 -2 -30 -6 -30 -3 0 -7
-12 -7 -27 -3 -54 -7 -70 -20 -70 -7 0 -11 2 -8 5 2 2 -3 11 -11 19 -8 8 -12
19 -9 24 6 8 -8 13 -27 10 -4 0 -5 8 -3 19 2 12 0 18 -4 15 -5 -2 -15 3 -22
12 -12 14 -12 16 1 9 12 -6 11 -4 -1 6 -9 7 -14 19 -12 26 3 6 0 12 -7 12 -6
0 -8 5 -5 10 3 6 1 10 -5 10 -6 0 -8 5 -5 10 3 6 2 10 -4 10 -5 0 -8 11 -7 25
2 13 -1 22 -5 19 -8 -5 -11 3 -8 22 0 4 -5 11 -13 15 -11 7 -11 9 1 9 11 0 11
3 0 17 -13 15 -12 16 9 11 12 -4 22 -2 22 4 0 5 6 6 12 2 7 -5 28 -7 46 -5z
m2564 -72 c2 -23 -1 -34 -9 -34 -7 0 -13 4 -13 9 0 5 -4 6 -10 3 -18 -11 -11
27 8 41 9 7 18 14 18 14 1 0 4 -15 6 -33z m569 -382 c20 0 36 -4 35 -10 -3
-19 -17 -35 -27 -29 -18 11 -68 13 -75 3 -3 -6 -10 -6 -17 -1 -13 11 -46 10
-64 -1 -6 -4 -14 -1 -16 5 -4 9 -8 10 -14 3 -4 -6 -20 -10 -35 -10 -31 1 -52
15 -22 15 11 0 26 6 33 13 11 10 13 10 7 0 -8 -15 10 -18 19 -4 3 6 13 10 23
10 9 0 32 2 50 4 17 2 32 0 32 -5 0 -5 5 -6 10 -3 6 4 7 12 3 18 -5 9 -3 9 8
2 8 -6 30 -11 50 -10z m-2877 -38 c6 6 10 -12 7 -30 -1 -5 3 -6 8 -3 5 4 17
-4 25 -16 11 -15 16 -18 16 -8 0 13 1 13 9 0 6 -8 8 -17 5 -21 -2 -5 5 -6 16
-4 11 2 20 0 20 -6 0 -5 13 -17 30 -28 16 -10 27 -21 23 -24 -3 -4 2 -7 13 -7
15 0 16 -2 5 -9 -11 -7 -9 -10 7 -15 13 -4 19 -13 15 -21 -3 -8 2 -18 11 -21
9 -3 14 -10 11 -14 -2 -4 6 -19 20 -34 13 -14 19 -26 13 -26 -7 0 -3 -7 8 -15
10 -8 15 -15 11 -15 -4 0 3 -11 16 -26 23 -25 30 -59 12 -59 -6 0 -9 3 -7 8 1
4 -5 7 -13 7 -8 0 -14 3 -14 8 3 20 -3 32 -17 32 -9 0 -14 6 -11 13 2 6 -5 17
-17 24 -12 7 -15 12 -8 13 10 0 10 3 0 14 -7 8 -16 12 -20 9 -5 -2 -8 2 -8 9
0 8 -9 20 -20 28 -11 8 -20 20 -20 26 0 7 -11 21 -25 32 -13 11 -21 22 -18 26
3 3 1 6 -6 6 -7 0 -9 5 -6 10 3 6 0 10 -8 10 -16 0 -58 46 -50 54 4 3 -2 6
-12 6 -10 0 -16 3 -13 6 7 7 -44 60 -55 56 -5 -1 -6 2 -2 8 4 7 12 7 24 0 10
-5 21 -6 25 -3z m-354 -157 c0 -5 -2 -10 -4 -10 -3 0 -8 5 -11 10 -3 6 -1 10
4 10 6 0 11 -4 11 -10z m-259 -257 c13 -16 12 -17 -3 -4 -10 7 -18 15 -18 17
0 8 8 3 21 -13z m2226 -60 c0 -7 -4 -10 -8 -7 -4 2 -15 -9 -25 -25 -16 -27
-35 -34 -51 -18 -4 4 3 10 15 14 12 3 20 9 17 13 -3 4 2 11 11 14 8 3 13 9 10
14 -2 4 3 8 13 8 10 0 18 -6 18 -13z m375 -53 c7 0 26 -13 41 -30 16 -16 23
-30 17 -30 -9 0 -9 -5 1 -17 8 -10 9 -14 2 -10 -7 4 -16 0 -22 -10 -9 -17 -10
-17 -16 0 -4 9 -13 17 -21 17 -7 0 -34 11 -59 25 -25 14 -50 23 -55 20 -6 -3
-10 -2 -10 4 0 6 -6 8 -13 5 -7 -2 -13 3 -13 14 0 15 8 17 44 16 34 -2 42 1
38 12 -5 12 -1 12 24 -1 16 -8 35 -15 42 -15z"/>
<path d="M4456 2278 c3 -5 10 -6 15 -3 13 9 11 12 -6 12 -8 0 -12 -4 -9 -9z"/>
<path d="M4494 2279 c-4 -7 -3 -9 4 -5 5 3 13 0 15 -6 4 -9 6 -10 6 -1 1 17
-16 25 -25 12z"/>
<path d="M385 2629 c-4 -6 -5 -12 -2 -15 2 -3 7 2 10 11 7 17 1 20 -8 4z"/>
<path d="M4530 2409 c0 -5 5 -7 10 -4 6 3 10 8 10 11 0 2 -4 4 -10 4 -5 0 -10
-5 -10 -11z"/>
<path d="M4770 2279 c0 -5 -4 -8 -9 -5 -5 3 -11 0 -14 -8 -5 -13 -45 -14 -66
-2 -5 4 -13 1 -17 -5 -4 -7 -3 -9 3 -6 6 4 16 0 22 -7 14 -17 -2 -31 -21 -20
-9 5 -9 3 1 -9 7 -9 17 -15 21 -12 5 3 10 0 12 -6 3 -8 10 -6 21 5 9 9 18 16
19 16 2 -1 15 3 29 9 40 15 54 61 19 61 -11 0 -20 -5 -20 -11z"/>
</g>
</svg>
